<?xml version="1.0" encoding="UTF-8"?>
<!DOCTYPE svg PUBLIC "-//W3C//DTD SVG 1.1//EN" "http://www.w3.org/Graphics/SVG/1.1/DTD/svg11.dtd">
<svg xmlns="http://www.w3.org/2000/svg" xmlns:xlink="http://www.w3.org/1999/xlink" version="1.1" width="330px" height="330px" viewBox="-0.5 -0.5 330 330"><defs/><g><path d="M 245 158.33 L 245 125 Q 245 115 255 115 L 275 115 Q 285 115 285 125 L 285 191.67 Q 285 201.67 280.81 210.75 L 269.19 235.92 Q 265 245 260.81 235.92 L 249.19 210.75 Q 245 201.67 245 191.67 Z" fill="#e1d5e7" stroke="#9673a6" stroke-width="10" stroke-miterlimit="10" pointer-events="all"/><rect x="205" y="85" width="120" height="40" rx="6" ry="6" fill="#f8cecc" stroke="#b85450" stroke-width="10" pointer-events="all"/><path d="M 145 245 L 135 245 Q 125 245 125 235 L 125 165 Q 125 155 132.07 147.93 L 157.93 122.07 Q 165 115 165 125 L 165 235 Q 165 245 155 245 Z" fill="#e1d5e7" stroke="#9673a6" stroke-width="10" stroke-miterlimit="10" pointer-events="all"/><path d="M 25 245 L 15 245 Q 5 245 5 235 L 5 165 Q 5 155 12.07 147.93 L 37.93 122.07 Q 45 115 45 125 L 45 235 Q 45 245 35 245 Z" fill="#e1d5e7" stroke="#9673a6" stroke-width="10" stroke-miterlimit="10" transform="translate(25,0)scale(-1,1)translate(-25,0)" pointer-events="all"/><path d="M 60.63 103.75 L 32.77 71.33 Q 26.25 63.75 36.25 63.75 L 65 63.75 Q 75 63.75 81.52 71.33 L 137.23 136.17 Q 143.75 143.75 137.23 151.33 L 81.52 216.17 Q 75 223.75 65 223.75 L 36.25 223.75 Q 26.25 223.75 32.77 216.17 L 88.48 151.33 Q 95 143.75 88.48 136.17 Z" fill="#f8cecc" stroke="#b85450" stroke-width="10" stroke-miterlimit="10" transform="rotate(90,85,143.75)" pointer-events="all"/><rect x="5" y="285" width="320" height="40" rx="6" ry="6" fill="#f8cecc" stroke="#b85450" stroke-width="10" pointer-events="all"/><rect x="5" y="5" width="320" height="40" rx="6" ry="6" fill="#e1d5e7" stroke="#9673a6" stroke-width="10" pointer-events="all"/></g></svg>