<?xml version="1.0" encoding="UTF-8"?>
<!DOCTYPE svg PUBLIC "-//W3C//DTD SVG 1.1//EN" "http://www.w3.org/Graphics/SVG/1.1/DTD/svg11.dtd">
<svg xmlns="http://www.w3.org/2000/svg" xmlns:xlink="http://www.w3.org/1999/xlink" version="1.1" width="340px" height="341px" viewBox="-0.5 -0.5 340 341"><defs/><g><path d="M 250 163.33 L 250 130 Q 250 120 260 120 L 280 120 Q 290 120 290 130 L 290 196.67 Q 290 206.67 285.81 215.75 L 274.19 240.92 Q 270 250 265.81 240.92 L 254.19 215.75 Q 250 206.67 250 196.67 Z" fill="#e1d5e7" stroke="#9673a6" stroke-width="20" stroke-miterlimit="10" pointer-events="all"/><rect x="210" y="90" width="120" height="40" rx="6" ry="6" fill="#f8cecc" stroke="#b85450" stroke-width="20" pointer-events="all"/><path d="M 150 250 L 140 250 Q 130 250 130 240 L 130 170 Q 130 160 137.07 152.93 L 162.93 127.07 Q 170 120 170 130 L 170 240 Q 170 250 160 250 Z" fill="#e1d5e7" stroke="#9673a6" stroke-width="20" stroke-miterlimit="10" pointer-events="all"/><path d="M 30 250 L 20 250 Q 10 250 10 240 L 10 170 Q 10 160 17.07 152.93 L 42.93 127.07 Q 50 120 50 130 L 50 240 Q 50 250 40 250 Z" fill="#e1d5e7" stroke="#9673a6" stroke-width="20" stroke-miterlimit="10" transform="translate(30,0)scale(-1,1)translate(-30,0)" pointer-events="all"/><path d="M 65.04 109.93 L 36.66 77.46 Q 30.08 69.93 40.08 69.93 L 70 69.93 Q 80 69.93 86.58 77.46 L 143.34 142.4 Q 149.92 149.93 143.34 157.46 L 86.58 222.4 Q 80 229.93 70 229.93 L 40.08 229.93 Q 30.08 229.93 36.66 222.4 L 93.42 157.46 Q 100 149.93 93.42 142.4 Z" fill="#f8cecc" stroke="#b85450" stroke-width="20" stroke-miterlimit="10" transform="rotate(90,90,149.93)" pointer-events="all"/><rect x="10" y="290" width="320" height="40" rx="6" ry="6" fill="#f8cecc" stroke="#b85450" stroke-width="20" pointer-events="all"/><rect x="10" y="10" width="320" height="40" rx="6" ry="6" fill="#e1d5e7" stroke="#9673a6" stroke-width="20" pointer-events="all"/></g></svg>