<?xml version="1.0" encoding="UTF-8"?>
<!DOCTYPE svg PUBLIC "-//W3C//DTD SVG 1.1//EN" "http://www.w3.org/Graphics/SVG/1.1/DTD/svg11.dtd">
<svg xmlns="http://www.w3.org/2000/svg" xmlns:xlink="http://www.w3.org/1999/xlink" version="1.1" width="321px" height="320px" viewBox="-0.5 -0.5 321 320"><defs/><g><path d="M 250 153.33 L 250 120 Q 250 110 260 110 L 265 110 Q 270 110 270 120 L 270 186.67 Q 270 196.67 267.75 206.41 L 262.25 230.26 Q 260 240 257.75 230.26 L 252.25 206.41 Q 250 196.67 250 186.67 Z" fill="#e1d5e7" stroke="#9673a6" stroke-width="20" stroke-miterlimit="10" pointer-events="all"/><rect x="210" y="90" width="100" height="20" rx="3" ry="3" fill="#f8cecc" stroke="#b85450" stroke-width="20" pointer-events="all"/><path d="M 140 230 L 135 230 Q 130 230 130 220 L 130 160 Q 130 150 134.47 141.06 L 145.53 118.94 Q 150 110 150 120 L 150 220 Q 150 230 145 230 Z" fill="#e1d5e7" stroke="#9673a6" stroke-width="20" stroke-miterlimit="10" pointer-events="all"/><path d="M 20 230 L 15 230 Q 10 230 10 220 L 10 160 Q 10 150 14.47 141.06 L 25.53 118.94 Q 30 110 30 120 L 30 220 Q 30 230 25 230 Z" fill="#e1d5e7" stroke="#9673a6" stroke-width="20" stroke-miterlimit="10" transform="translate(20,0)scale(-1,1)translate(-20,0)" pointer-events="all"/><path d="M 64.24 103.44 L 34 75.22 Q 26.69 68.4 36.69 68.4 L 47.98 68.4 Q 57.98 68.4 65.29 75.22 L 125.77 131.65 Q 133.08 138.47 125.77 145.3 L 65.29 201.73 Q 57.98 208.55 47.98 208.55 L 36.69 208.55 Q 26.69 208.55 34 201.73 L 94.48 145.3 Q 101.79 138.47 94.48 131.65 Z" fill="#f8cecc" stroke="#b85450" stroke-width="20" stroke-miterlimit="10" transform="rotate(90,79.88,138.48)" pointer-events="all"/><rect x="10" y="290" width="300" height="20" rx="3" ry="3" fill="#f8cecc" stroke="#b85450" stroke-width="20" pointer-events="all"/><rect x="10" y="10" width="300" height="20" rx="3" ry="3" fill="#e1d5e7" stroke="#9673a6" stroke-width="20" pointer-events="all"/><path d="M 19.88 111.56 L 79.88 171.56 L 139.88 111.56" fill="none" stroke="#b85450" stroke-width="20" stroke-miterlimit="10" pointer-events="stroke"/></g></svg>